<mxfile host="app.diagrams.net" modified="2023-10-25T12:28:16.408Z" agent="Mozilla/5.0 (Windows NT 10.0; Win64; x64) AppleWebKit/537.36 (KHTML, like Gecko) Chrome/118.0.0.0 Safari/537.36" etag="te-L01Twa7vsHyIdRtCL" version="22.0.6" type="device" pages="2">
  <diagram id="vJ0PxgG6MMmgwslz9s_T" name="Page-2">
    <mxGraphModel dx="1050" dy="653" grid="1" gridSize="10" guides="1" tooltips="1" connect="1" arrows="1" fold="1" page="1" pageScale="1" pageWidth="827" pageHeight="1169" math="0" shadow="0">
      <root>
        <mxCell id="0" />
        <mxCell id="1" parent="0" />
        <mxCell id="w3H0vLdTaAc2HfTooLs5-1" value="" style="edgeStyle=orthogonalEdgeStyle;rounded=0;orthogonalLoop=1;jettySize=auto;html=1;" edge="1" parent="1" source="w3H0vLdTaAc2HfTooLs5-2" target="w3H0vLdTaAc2HfTooLs5-4">
          <mxGeometry relative="1" as="geometry" />
        </mxCell>
        <mxCell id="w3H0vLdTaAc2HfTooLs5-2" value="start" style="rounded=1;whiteSpace=wrap;html=1;" vertex="1" parent="1">
          <mxGeometry x="350" y="40" width="120" height="60" as="geometry" />
        </mxCell>
        <mxCell id="w3H0vLdTaAc2HfTooLs5-3" value="" style="edgeStyle=orthogonalEdgeStyle;rounded=0;orthogonalLoop=1;jettySize=auto;html=1;" edge="1" parent="1" source="w3H0vLdTaAc2HfTooLs5-4" target="w3H0vLdTaAc2HfTooLs5-9">
          <mxGeometry relative="1" as="geometry" />
        </mxCell>
        <mxCell id="w3H0vLdTaAc2HfTooLs5-4" value="num" style="shape=parallelogram;perimeter=parallelogramPerimeter;whiteSpace=wrap;html=1;fixedSize=1;" vertex="1" parent="1">
          <mxGeometry x="350" y="120" width="120" height="60" as="geometry" />
        </mxCell>
        <mxCell id="w3H0vLdTaAc2HfTooLs5-5" style="edgeStyle=orthogonalEdgeStyle;rounded=0;orthogonalLoop=1;jettySize=auto;html=1;" edge="1" parent="1" source="w3H0vLdTaAc2HfTooLs5-9">
          <mxGeometry relative="1" as="geometry">
            <mxPoint x="530" y="240" as="targetPoint" />
          </mxGeometry>
        </mxCell>
        <mxCell id="w3H0vLdTaAc2HfTooLs5-6" value="true" style="edgeLabel;html=1;align=center;verticalAlign=middle;resizable=0;points=[];" vertex="1" connectable="0" parent="w3H0vLdTaAc2HfTooLs5-5">
          <mxGeometry x="-0.2463" y="-2" relative="1" as="geometry">
            <mxPoint as="offset" />
          </mxGeometry>
        </mxCell>
        <mxCell id="w3H0vLdTaAc2HfTooLs5-7" value="" style="edgeStyle=orthogonalEdgeStyle;rounded=0;orthogonalLoop=1;jettySize=auto;html=1;entryX=1;entryY=0.5;entryDx=0;entryDy=0;" edge="1" parent="1" source="w3H0vLdTaAc2HfTooLs5-9" target="w3H0vLdTaAc2HfTooLs5-20">
          <mxGeometry relative="1" as="geometry">
            <mxPoint x="290" y="300" as="targetPoint" />
          </mxGeometry>
        </mxCell>
        <mxCell id="w3H0vLdTaAc2HfTooLs5-8" value="false" style="edgeLabel;html=1;align=center;verticalAlign=middle;resizable=0;points=[];" vertex="1" connectable="0" parent="w3H0vLdTaAc2HfTooLs5-7">
          <mxGeometry x="-0.2497" y="1" relative="1" as="geometry">
            <mxPoint as="offset" />
          </mxGeometry>
        </mxCell>
        <mxCell id="w3H0vLdTaAc2HfTooLs5-9" value="num &amp;gt;1" style="shape=hexagon;perimeter=hexagonPerimeter2;whiteSpace=wrap;html=1;fixedSize=1;" vertex="1" parent="1">
          <mxGeometry x="350" y="200" width="120" height="80" as="geometry" />
        </mxCell>
        <mxCell id="w3H0vLdTaAc2HfTooLs5-10" value="" style="edgeStyle=orthogonalEdgeStyle;rounded=0;orthogonalLoop=1;jettySize=auto;html=1;" edge="1" parent="1" source="w3H0vLdTaAc2HfTooLs5-14">
          <mxGeometry relative="1" as="geometry">
            <mxPoint x="670" y="240" as="targetPoint" />
          </mxGeometry>
        </mxCell>
        <mxCell id="w3H0vLdTaAc2HfTooLs5-24" value="false" style="edgeLabel;html=1;align=center;verticalAlign=middle;resizable=0;points=[];" vertex="1" connectable="0" parent="w3H0vLdTaAc2HfTooLs5-10">
          <mxGeometry x="-0.3124" y="-2" relative="1" as="geometry">
            <mxPoint as="offset" />
          </mxGeometry>
        </mxCell>
        <mxCell id="w3H0vLdTaAc2HfTooLs5-22" value="" style="edgeStyle=orthogonalEdgeStyle;rounded=0;orthogonalLoop=1;jettySize=auto;html=1;" edge="1" parent="1" source="w3H0vLdTaAc2HfTooLs5-14" target="w3H0vLdTaAc2HfTooLs5-17">
          <mxGeometry relative="1" as="geometry" />
        </mxCell>
        <mxCell id="w3H0vLdTaAc2HfTooLs5-23" value="true" style="edgeLabel;html=1;align=center;verticalAlign=middle;resizable=0;points=[];" vertex="1" connectable="0" parent="w3H0vLdTaAc2HfTooLs5-22">
          <mxGeometry x="-0.1" y="-2" relative="1" as="geometry">
            <mxPoint as="offset" />
          </mxGeometry>
        </mxCell>
        <mxCell id="w3H0vLdTaAc2HfTooLs5-14" value="num%2==0" style="rhombus;whiteSpace=wrap;html=1;" vertex="1" parent="1">
          <mxGeometry x="530" y="200" width="80" height="80" as="geometry" />
        </mxCell>
        <mxCell id="w3H0vLdTaAc2HfTooLs5-15" style="edgeStyle=orthogonalEdgeStyle;rounded=0;orthogonalLoop=1;jettySize=auto;html=1;exitX=1;exitY=0.5;exitDx=0;exitDy=0;" edge="1" parent="1">
          <mxGeometry relative="1" as="geometry">
            <mxPoint x="410" y="190" as="targetPoint" />
            <Array as="points">
              <mxPoint x="810" y="240" />
              <mxPoint x="810" y="190" />
            </Array>
            <mxPoint x="790" y="240" as="sourcePoint" />
          </mxGeometry>
        </mxCell>
        <mxCell id="w3H0vLdTaAc2HfTooLs5-17" value="num" style="shape=document;whiteSpace=wrap;html=1;boundedLbl=1;" vertex="1" parent="1">
          <mxGeometry x="510" y="330" width="120" height="80" as="geometry" />
        </mxCell>
        <mxCell id="w3H0vLdTaAc2HfTooLs5-20" value="end" style="rounded=1;whiteSpace=wrap;html=1;" vertex="1" parent="1">
          <mxGeometry x="80" y="210" width="120" height="60" as="geometry" />
        </mxCell>
        <mxCell id="w3H0vLdTaAc2HfTooLs5-25" value="num++" style="rounded=0;whiteSpace=wrap;html=1;" vertex="1" parent="1">
          <mxGeometry x="670" y="210" width="120" height="60" as="geometry" />
        </mxCell>
      </root>
    </mxGraphModel>
  </diagram>
  <diagram id="s2TWPYSkLDnwfUXzlYYk" name="Page-3">
    <mxGraphModel dx="2062" dy="1937" grid="1" gridSize="10" guides="1" tooltips="1" connect="1" arrows="1" fold="1" page="1" pageScale="1" pageWidth="827" pageHeight="1169" math="0" shadow="0">
      <root>
        <mxCell id="0" />
        <mxCell id="1" parent="0" />
        <mxCell id="MJS3h2Hke3ATQF9v2Qc7-1" value="start" style="rounded=1;whiteSpace=wrap;html=1;" vertex="1" parent="1">
          <mxGeometry x="434" y="-203" width="120" height="60" as="geometry" />
        </mxCell>
        <mxCell id="MJS3h2Hke3ATQF9v2Qc7-6" value="" style="edgeStyle=orthogonalEdgeStyle;rounded=0;orthogonalLoop=1;jettySize=auto;html=1;" edge="1" parent="1" source="MJS3h2Hke3ATQF9v2Qc7-1" target="MJS3h2Hke3ATQF9v2Qc7-5">
          <mxGeometry relative="1" as="geometry">
            <mxPoint x="494" y="-143" as="sourcePoint" />
            <mxPoint x="494" y="-63" as="targetPoint" />
          </mxGeometry>
        </mxCell>
        <mxCell id="MJS3h2Hke3ATQF9v2Qc7-8" value="" style="edgeStyle=orthogonalEdgeStyle;rounded=0;orthogonalLoop=1;jettySize=auto;html=1;" edge="1" parent="1" source="MJS3h2Hke3ATQF9v2Qc7-5" target="MJS3h2Hke3ATQF9v2Qc7-7">
          <mxGeometry relative="1" as="geometry" />
        </mxCell>
        <mxCell id="MJS3h2Hke3ATQF9v2Qc7-5" value="door;x, y&lt;br&gt;wardrobe;a,b,c" style="shape=parallelogram;perimeter=parallelogramPerimeter;whiteSpace=wrap;html=1;fixedSize=1;" vertex="1" parent="1">
          <mxGeometry x="434" y="-103" width="120" height="60" as="geometry" />
        </mxCell>
        <mxCell id="NX3qC2hWAQghbAehZTev-2" value="" style="edgeStyle=orthogonalEdgeStyle;rounded=0;orthogonalLoop=1;jettySize=auto;html=1;" edge="1" parent="1" source="MJS3h2Hke3ATQF9v2Qc7-7" target="NX3qC2hWAQghbAehZTev-1">
          <mxGeometry relative="1" as="geometry" />
        </mxCell>
        <mxCell id="NX3qC2hWAQghbAehZTev-3" value="true" style="edgeLabel;html=1;align=center;verticalAlign=middle;resizable=0;points=[];" vertex="1" connectable="0" parent="NX3qC2hWAQghbAehZTev-2">
          <mxGeometry x="-0.04" relative="1" as="geometry">
            <mxPoint as="offset" />
          </mxGeometry>
        </mxCell>
        <mxCell id="NX3qC2hWAQghbAehZTev-5" value="" style="edgeStyle=orthogonalEdgeStyle;rounded=0;orthogonalLoop=1;jettySize=auto;html=1;" edge="1" parent="1" source="MJS3h2Hke3ATQF9v2Qc7-7" target="NX3qC2hWAQghbAehZTev-4">
          <mxGeometry relative="1" as="geometry" />
        </mxCell>
        <mxCell id="NX3qC2hWAQghbAehZTev-6" value="false" style="edgeLabel;html=1;align=center;verticalAlign=middle;resizable=0;points=[];" vertex="1" connectable="0" parent="NX3qC2hWAQghbAehZTev-5">
          <mxGeometry x="-0.01" relative="1" as="geometry">
            <mxPoint as="offset" />
          </mxGeometry>
        </mxCell>
        <mxCell id="MJS3h2Hke3ATQF9v2Qc7-7" value="if x&amp;gt;=a&amp;nbsp; &amp;amp;&amp;amp; y&amp;gt;=b &amp;amp;&amp;amp; y&amp;gt;=c" style="rhombus;whiteSpace=wrap;html=1;" vertex="1" parent="1">
          <mxGeometry x="354" y="27" width="280" height="100" as="geometry" />
        </mxCell>
        <mxCell id="NX3qC2hWAQghbAehZTev-8" style="edgeStyle=orthogonalEdgeStyle;rounded=0;orthogonalLoop=1;jettySize=auto;html=1;entryX=0;entryY=0.5;entryDx=0;entryDy=0;" edge="1" parent="1" source="NX3qC2hWAQghbAehZTev-1" target="NX3qC2hWAQghbAehZTev-7">
          <mxGeometry relative="1" as="geometry">
            <Array as="points">
              <mxPoint x="250" y="227" />
            </Array>
          </mxGeometry>
        </mxCell>
        <mxCell id="NX3qC2hWAQghbAehZTev-1" value="true" style="shape=document;whiteSpace=wrap;html=1;boundedLbl=1;" vertex="1" parent="1">
          <mxGeometry x="190" y="37" width="120" height="80" as="geometry" />
        </mxCell>
        <mxCell id="NX3qC2hWAQghbAehZTev-9" style="edgeStyle=orthogonalEdgeStyle;rounded=0;orthogonalLoop=1;jettySize=auto;html=1;entryX=1;entryY=0.5;entryDx=0;entryDy=0;" edge="1" parent="1" source="NX3qC2hWAQghbAehZTev-4" target="NX3qC2hWAQghbAehZTev-7">
          <mxGeometry relative="1" as="geometry">
            <Array as="points">
              <mxPoint x="744" y="227" />
            </Array>
          </mxGeometry>
        </mxCell>
        <mxCell id="NX3qC2hWAQghbAehZTev-4" value="false" style="shape=document;whiteSpace=wrap;html=1;boundedLbl=1;" vertex="1" parent="1">
          <mxGeometry x="680" y="37" width="120" height="80" as="geometry" />
        </mxCell>
        <mxCell id="NX3qC2hWAQghbAehZTev-7" value="end" style="rounded=1;whiteSpace=wrap;html=1;" vertex="1" parent="1">
          <mxGeometry x="434" y="197" width="120" height="60" as="geometry" />
        </mxCell>
        <mxCell id="NX3qC2hWAQghbAehZTev-13" value="DOOR&amp;nbsp;&lt;br&gt;width&amp;nbsp;:x&lt;br&gt;height&amp;nbsp;:y&lt;br&gt;&lt;br&gt;wardrobe&lt;br&gt;&lt;br&gt;width:a&lt;br&gt;height:b&lt;br&gt;depth:c" style="whiteSpace=wrap;html=1;aspect=fixed;" vertex="1" parent="1">
          <mxGeometry x="-106" y="-20" width="246" height="246" as="geometry" />
        </mxCell>
      </root>
    </mxGraphModel>
  </diagram>
</mxfile>
